<svg width="88" height="57" viewBox="0 0 88 57" fill="none" xmlns="http://www.w3.org/2000/svg">
<g clip-path="url(#clip0_30_2)">
<path d="M1 56V1L86 2.5C78.5 4.66667 74.1182 7.78993 82.5 18.5C91.5 30 84 27.5 78.5 40.5C74.1 50.9 79.3333 54.1667 82.5 55L1 56Z" fill="white" stroke="black"/>
<path d="M44 43.9375C52.802 43.9375 59.9375 36.802 59.9375 28C59.9375 19.198 52.802 12.0625 44 12.0625C35.198 12.0625 28.0625 19.198 28.0625 28C28.0625 36.802 35.198 43.9375 44 43.9375Z" fill="#ED4C5C"/>
<path d="M38.6875 26.0875L42.9375 29.0625L41.3438 24.175L45.5938 21.0938H40.3344L38.6875 16.3125L37.0938 21.0938H31.7812L36.0312 24.175L34.4375 29.0625L38.6875 26.0875ZM45.7531 29.7531L44.5312 30.0187L45.7 30.4969V31.7188L46.4969 30.8156L47.6656 31.2406L46.975 30.2313L47.7188 29.275L46.4969 29.5406L45.7531 28.5312V29.7531ZM47.5594 26.1406L46.6562 26.9375L47.8781 26.8312L48.4094 28L48.6219 26.7781L49.8438 26.6719L48.7812 26.0344L49.0469 24.8125L48.1437 25.6094L47.0812 24.9719L47.5594 26.1406ZM47.8781 21.9969L48.25 23.2188L48.6219 22.05H49.8438L48.8875 21.3062L49.2594 20.0844L48.25 20.8281L47.2938 20.0312L47.6656 21.2531L46.6562 21.9438L47.8781 21.9969ZM45.7531 17.7469V18.9688L46.4969 17.9594L47.7188 18.225L46.975 17.2688L47.6656 16.2594L46.4969 16.7375L45.7 15.7812V17.0031L44.5312 17.4812L45.7531 17.7469Z" fill="#FFE62E"/>
</g>
<defs>
<clipPath id="clip0_30_2">
<rect width="88" height="57" fill="white"/>
</clipPath>
</defs>
</svg>
