<svg width="88" height="57" viewBox="0 0 88 57" fill="none" xmlns="http://www.w3.org/2000/svg">
<g clip-path="url(#clip0_30_6)">
<path d="M1 56V1L86 2.5C78.5 4.66667 74.1182 7.78993 82.5 18.5C91.5 30 84 27.5 78.5 40.5C74.1 50.9 79.3333 54.1667 82.5 55L1 56Z" fill="white" stroke="black"/>
<mask id="mask0_30_6" style="mask-type:luminance" maskUnits="userSpaceOnUse" x="27" y="12" width="34" height="34">
<path d="M61 12H27V46H61V12Z" fill="white"/>
</mask>
<g mask="url(#mask0_30_6)">
<mask id="mask1_30_6" style="mask-type:luminance" maskUnits="userSpaceOnUse" x="27" y="12" width="34" height="34">
<path d="M44 46C53.3888 46 61 38.3888 61 29C61 19.6112 53.3888 12 44 12C34.6112 12 27 19.6112 27 29C27 38.3888 34.6112 46 44 46Z" fill="white"/>
</mask>
<g mask="url(#mask1_30_6)">
<path d="M27 12H61V46H27V12Z" fill="#0052B4"/>
<path d="M44.0004 18.6538L44.5516 20.3472H46.3246L44.8836 21.3897L45.4348 23.0897L43.9937 22.0405L42.5527 23.0897L43.1039 21.3897L41.6629 20.3472H43.4426L44.0004 18.6538ZM36.6824 21.6819L38.2762 22.4921L39.5312 21.2304L39.2523 22.9901L40.8395 23.8003L39.0797 24.0792L38.8008 25.839L37.9906 24.2452L36.2309 24.5308L37.4926 23.269L36.6824 21.6819ZM33.6543 28.9999L35.3477 28.4487V26.6757L36.3902 28.1167L38.0902 27.5655L37.041 29.0065L38.0902 30.4476L36.3902 29.8964L35.3477 31.3374V29.5577L33.6543 28.9999ZM36.6824 36.3179L37.4926 34.7241L36.2309 33.469L37.9906 33.7479L38.8008 32.1608L39.0797 33.9206L40.8395 34.1995L39.2457 35.0097L39.5312 36.7694L38.2695 35.5077L36.6824 36.3179ZM44.0004 39.346L43.4492 37.6526H41.6762L43.1172 36.6101L42.566 34.9101L44.007 35.9593L45.448 34.9101L44.8969 36.6101L46.3379 37.6526H44.5582L44.0004 39.346ZM51.3184 36.3179L49.7246 35.5077L48.4695 36.7694L48.7484 35.0097L47.1613 34.1995L48.9211 33.9206L49.2 32.1608L50.0102 33.7546L51.7699 33.469L50.5082 34.7308L51.3184 36.3179ZM54.3465 28.9999L52.6531 29.5511V31.3241L51.6105 29.8831L49.9105 30.4343L50.9598 28.9933L49.9105 27.5522L51.6105 28.1034L52.6531 26.6624V28.4421L54.3465 28.9999ZM51.3184 21.6819L50.5082 23.2757L51.7699 24.5308L50.0102 24.2519L49.2 25.839L48.9211 24.0792L47.1613 23.8003L48.7551 22.9901L48.4695 21.2304L49.7312 22.4921L51.3184 21.6819Z" fill="#FFDA44"/>
</g>
</g>
</g>
<defs>
<clipPath id="clip0_30_6">
<rect width="88" height="57" fill="white"/>
</clipPath>
</defs>
</svg>
